# Blender v2.77 (sub 0) OBJ File: 'turret.blend'
# www.blender.org
o Dead_Base_Cylinder.005
v -0.002500 0.047500 -0.053557
v 0.002500 0.047500 -0.053557
v 0.000000 0.057500 -0.052967
v 0.002500 0.055739 -0.053557
v -0.002500 0.055739 -0.053557
v 0.046386 0.047500 -0.028219
v 0.047631 0.047500 -0.026062
v 0.041953 0.057500 -0.028745
v 0.044096 0.057500 -0.026159
v 0.047631 0.053964 -0.026062
v 0.046386 0.055739 -0.028219
v 0.047631 0.047500 0.024613
v 0.045131 0.047500 0.028943
v 0.044096 0.057500 0.025459
v 0.045131 0.053964 0.028943
v 0.047631 0.053964 0.024613
v 0.001128 0.047500 0.054349
v -0.001299 0.047500 0.054906
v -0.001128 0.047500 0.054349
v -0.002856 0.057500 0.052566
v -0.001299 0.051861 0.054906
v 0.001128 0.053964 0.054349
v -0.046164 0.047500 0.029665
v -0.047631 0.047500 0.025146
v -0.045367 0.047500 0.028808
v -0.045103 0.057500 0.029673
v -0.047631 0.057500 0.025700
v -0.046164 0.056627 0.029665
v -0.047631 0.047500 -0.026159
v -0.046386 0.047500 -0.028219
v -0.042935 0.055739 -0.028219
v -0.044180 0.057500 -0.026159
v -0.041953 0.057500 -0.028745
v -0.021588 0.056627 0.053440
v -0.022599 0.057500 0.052491
v -0.023968 0.056627 0.052709
v -0.021588 0.047500 0.053440
v -0.023968 0.047500 0.052709
v -0.033663 0.047500 0.047111
v -0.035486 0.047500 0.045415
v -0.034159 0.057500 0.045817
v -0.035486 0.056627 0.045415
v -0.033663 0.056627 0.047111
v 0.016666 0.053684 -0.011654
v 0.017762 0.053684 -0.010330
v -0.006270 0.053684 0.029965
v -0.016375 0.053684 0.029926
v -0.027893 0.053684 0.018247
v -0.029187 0.053684 0.016213
v -0.027421 0.053684 -0.010330
v -0.026281 0.053684 -0.011654
v -0.004808 0.053684 -0.024052
v 0.017762 0.053684 0.016090
v -0.022292 0.053684 0.026510
vt 0.8975 0.4025
vt 0.8025 0.4025
vt 0.8025 0.7975
vt 0.8975 0.7975
vt 0.0025 0.7975
vt 0.3975 0.7975
vt 0.3975 0.6025
vt 0.0025 0.6025
vt 0.9725 0.6025
vt 0.9275 0.6025
vt 0.9275 0.7975
vt 0.9725 0.7975
vt 0.7975 0.7025
vt 0.7025 0.7025
vt 0.7025 0.7975
vt 0.7975 0.7975
vt 0.3975 0.8975
vt 0.3975 0.8525
vt 0.0025 0.8525
vt 0.0025 0.8975
vt 0.4975 0.7025
vt 0.4025 0.7025
vt 0.4025 0.8975
vt 0.4975 0.8975
vt 0.8975 0.8475
vt 0.8975 0.8025
vt 0.5025 0.8025
vt 0.5025 0.8475
vt 0.9475 0.0025
vt 0.9025 0.0025
vt 0.9025 0.3975
vt 0.9475 0.3975
vt 0.8525 0.8525
vt 0.8525 0.8950
vt 0.8950 0.8525
vt 0.7975 0.6975
vt 0.7975 0.6025
vt 0.4025 0.6025
vt 0.4025 0.6975
vt 0.8867 0.0025
vt 0.8975 0.0045
vt 0.8975 0.3965
vt 0.8921 0.3975
vt 0.8078 0.2570
vt 0.8025 0.2384
vt 0.8025 0.1525
vt 0.8078 0.1339
vt 0.3975 0.9475
vt 0.3800 0.9475
vt 0.3975 0.9300
vt 0.7475 0.9475
vt 0.7475 0.9275
vt 0.7025 0.9275
vt 0.7025 0.9475
vt 0.7725 0.9300
vt 0.7550 0.9475
vt 0.7725 0.9475
vt 0.7525 0.9450
vt 0.7700 0.9275
vt 0.7525 0.9275
vt 0.9975 0.7975
vt 0.9975 0.6050
vt 0.9800 0.7975
vt 0.8225 0.9300
vt 0.7800 0.9350
vt 0.8225 0.9350
vt 0.7775 0.9325
vt 0.8200 0.9275
vt 0.7775 0.9275
vt 0.3775 0.9275
vt 0.3775 0.9450
vt 0.3950 0.9275
vt 0.8300 0.9350
vt 0.8350 0.9350
vt 0.8350 0.9300
vt 0.8275 0.9275
vt 0.8325 0.9275
vt 0.8275 0.9325
vt 0.9225 0.9975
vt 0.9225 0.6025
vt 0.9025 0.6025
vt 0.9025 0.9975
vt 0.8475 0.8525
vt 0.8025 0.8525
vt 0.8025 0.8975
vt 0.8475 0.8975
vt 0.3275 0.9475
vt 0.3725 0.9475
vt 0.3725 0.9275
vt 0.3275 0.9275
vt 0.9975 0.3975
vt 0.9975 0.0025
vt 0.9525 0.0025
vt 0.9525 0.3975
vt 0.4725 0.9025
vt 0.4275 0.9025
vt 0.4275 0.9475
vt 0.4725 0.9475
vt 0.0025 0.8475
vt 0.3975 0.8475
vt 0.3975 0.8025
vt 0.0025 0.8025
vt 0.3225 0.9725
vt 0.3225 0.9275
vt 0.3025 0.9275
vt 0.3025 0.9725
vt 0.7025 0.8975
vt 0.7975 0.8975
vt 0.7975 0.8525
vt 0.7025 0.8525
vt 0.4975 0.9975
vt 0.4975 0.9025
vt 0.4775 0.9025
vt 0.4775 0.9975
vt 0.0025 0.9225
vt 0.3975 0.9225
vt 0.3975 0.9025
vt 0.0025 0.9025
vt 0.4225 0.9975
vt 0.4225 0.9025
vt 0.4025 0.9025
vt 0.4025 0.9975
vt 0.2025 0.9350
vt 0.2975 0.9350
vt 0.2975 0.9275
vt 0.2025 0.9275
vt 0.9975 0.8975
vt 0.9975 0.8025
vt 0.9775 0.8025
vt 0.9775 0.8975
vt 0.0025 0.9350
vt 0.1975 0.9350
vt 0.1975 0.9275
vt 0.0025 0.9275
vt 0.9950 0.6025
vt 0.9775 0.6025
vt 0.9775 0.7950
vt 0.0324 0.3756
vt 0.0325 0.3759
vt 0.0325 0.3787
vt 0.0324 0.3789
vt 0.0296 0.3803
vt 0.0293 0.3803
vt 0.0265 0.3789
vt 0.0264 0.3788
vt 0.0264 0.3759
vt 0.0265 0.3756
vt 0.0294 0.3742
vt 0.0295 0.3742
vt 0.1867 0.3954
vt 0.0025 0.3046
vt 0.0025 0.1230
vt 0.0074 0.1109
vt 0.1971 0.0025
vt 0.2177 0.0033
vt 0.3031 0.0085
vt 0.3539 0.0336
vt 0.3975 0.0975
vt 0.3975 0.3007
vt 0.2012 0.3975
vt 0.9475 0.8025
vt 0.9275 0.8025
vt 0.9275 0.9975
vt 0.9475 0.9975
vt 0.0025 0.5975
vt 0.3975 0.5975
vt 0.3975 0.4025
vt 0.0025 0.4025
vt 0.7975 0.5975
vt 0.7975 0.2025
vt 0.6025 0.2025
vt 0.6025 0.5975
vt 0.6975 0.7975
vt 0.6975 0.7025
vt 0.5025 0.7025
vt 0.5025 0.7975
vt 0.5975 0.5975
vt 0.5975 0.2025
vt 0.4025 0.2025
vt 0.4025 0.5975
vt 0.4025 0.1975
vt 0.7975 0.1975
vt 0.7975 0.0025
vt 0.4025 0.0025
vt 0.9975 0.4025
vt 0.9025 0.4025
vt 0.9025 0.5975
vt 0.9975 0.5975
vt 0.8975 0.9225
vt 0.8975 0.9025
vt 0.7025 0.9025
vt 0.7025 0.9225
vt 0.9725 0.8025
vt 0.9525 0.8025
vt 0.9525 0.9975
vt 0.9725 0.9975
vt 0.6975 0.9475
vt 0.6975 0.8525
vt 0.5025 0.8525
vt 0.5025 0.9475
vn -0.5121 0.1073 -0.8522
vn 0.0831 0.9861 0.1440
vn -0.0721 0.0000 0.9974
vn -0.5000 0.0000 0.8660
vn 1.0000 0.0000 0.0000
vn -0.8277 0.0000 0.5611
vn 0.5000 0.0000 -0.8660
vn 0.5000 0.0000 0.8660
vn -0.0973 0.3584 0.9285
vn -0.9847 0.1709 -0.0329
vn 0.0000 -1.0000 0.0000
vn 0.0000 0.3176 -0.9482
vn 0.5561 0.8264 -0.0880
vn 0.6940 0.5982 0.4007
vn 0.0248 0.3890 0.9209
vn -0.5907 0.7139 0.3759
vn -0.7389 0.2219 -0.6362
vn -0.2406 0.5727 0.7836
vn -0.5584 0.5727 0.6002
vn 0.3536 0.7071 -0.6124
vn 0.0000 0.0000 -1.0000
vn 0.8660 0.0000 -0.5000
vn 0.7071 0.7071 0.0000
vn 0.8660 0.0000 0.5000
vn 0.3536 0.7071 0.6124
vn 0.2238 -0.0000 0.9746
vn -0.9453 -0.0094 0.3261
vn -0.7603 0.2877 -0.5824
vn -0.4564 0.4649 -0.7587
vn -0.2935 0.0000 0.9560
vn -0.3536 0.7071 0.6124
vn -0.6811 0.0000 0.7321
vn -0.5853 0.7071 0.3968
vn -0.0026 0.7343 0.6788
vn -0.0000 1.0000 0.0000
vn -0.0960 0.9922 0.0795
vn -0.0883 0.9843 -0.1529
vn -0.0689 0.9905 0.1193
vn 0.0831 0.9861 -0.1439
vn 0.2095 0.9777 0.0139
vn -0.1434 0.9897 0.0000
vn 0.1504 0.9834 -0.1019
vn 0.1533 0.9834 -0.0976
vn 0.1239 0.9865 0.1067
vn 0.0006 0.9860 -0.1666
s off
f 30/1/1 31/2/1 5/3/1 1/4/1
f 3/5/2 33/6/2 51/7/2 52/8/2
f 18/9/3 21/10/3 34/11/3 37/12/3
f 38/13/4 36/14/4 43/15/4 39/16/4
f 7/17/5 10/18/5 16/19/5 12/20/5
f 28/21/6 23/22/6 40/23/6 42/24/6
f 2/25/7 4/26/7 11/27/7 6/28/7
f 13/29/8 15/30/8 22/31/8 17/32/8
f 22/33/9 20/34/9 21/35/9
f 24/36/10 27/37/10 32/38/10 29/39/10
f 23/40/11 25/41/11 19/42/11 18/43/11 37/44/11 38/45/11 39/46/11 40/47/11
f 3/48/12 4/49/12 5/50/12
f 8/51/13 9/52/13 10/53/13 11/54/13
f 14/55/14 15/56/14 16/57/14
f 17/58/11 18/59/11 19/60/11
f 20/61/15 34/62/15 21/63/15
f 23/64/11 24/65/11 25/66/11
f 26/67/16 27/68/16 28/69/16
f 31/70/17 32/71/17 33/72/17
f 34/73/18 35/74/18 36/75/18
f 41/76/19 42/77/19 43/78/19
f 11/79/20 4/80/20 3/81/20 8/82/20
f 1/83/21 5/84/21 4/85/21 2/86/21
f 10/87/22 7/88/22 6/89/22 11/90/22
f 16/91/23 10/92/23 9/93/23 14/94/23
f 15/95/24 13/96/24 12/97/24 16/98/24
f 22/99/25 15/100/25 14/101/25 20/102/25
f 21/103/26 18/104/26 17/105/26 22/106/26
f 27/107/27 24/108/27 23/109/27 28/110/27
f 31/111/28 30/112/28 29/113/28 32/114/28
f 5/115/29 31/116/29 33/117/29 3/118/29
f 36/119/30 38/120/30 37/121/30 34/122/30
f 43/123/31 36/124/31 35/125/31 41/126/31
f 42/127/32 40/128/32 39/129/32 43/130/32
f 41/131/33 26/132/33 28/133/33 42/134/33
f 35/135/34 34/136/34 20/137/34
f 1/138/11 2/139/11 6/140/11 7/141/11 12/142/11 13/143/11 17/144/11 19/145/11 25/146/11 24/147/11 29/148/11 30/149/11
f 44/150/35 52/151/35 51/152/35 50/153/35 49/154/35 48/155/35 54/156/35 47/157/35 46/158/35 53/159/35 45/160/35
f 9/161/36 8/162/36 44/163/36 45/164/36
f 20/165/37 14/166/37 53/167/37 46/168/37
f 8/169/38 3/170/38 52/171/38 44/172/38
f 41/173/39 35/174/39 47/175/39 54/176/39
f 32/177/40 27/178/40 49/179/40 50/180/40
f 14/181/41 9/182/41 45/183/41 53/184/41
f 26/185/42 41/186/42 54/187/42 48/188/42
f 27/189/43 26/190/43 48/191/43 49/192/43
f 33/193/44 32/194/44 50/195/44 51/196/44
f 35/197/45 20/198/45 46/199/45 47/200/45
